<svg width="62" height="61" viewBox="0 0 62 61" fill="none" xmlns="http://www.w3.org/2000/svg">
<path d="M21.6896 60.4688C27.3623 60.4688 31.9386 55.9688 31.9386 50.3906V40.3125H21.6896C16.0169 40.3125 11.4407 44.8125 11.4407 50.3906C11.4407 55.9688 16.0169 60.4688 21.6896 60.4688Z" fill="#0ACF83"/>
<path d="M11.4407 30.2344C11.4407 24.6562 16.0169 20.1562 21.6896 20.1562H31.9386V40.3125H21.6896C16.0169 40.3125 11.4407 35.8125 11.4407 30.2344Z" fill="#A259FF"/>
<path d="M11.4407 10.0781C11.4407 4.5 16.0169 0 21.6896 0H31.9386V20.1562H21.6896C16.0169 20.1562 11.4407 15.6562 11.4407 10.0781Z" fill="#F24E1E"/>
<path d="M31.9386 0H42.1875C47.8602 0 52.4365 4.5 52.4365 10.0781C52.4365 15.6562 47.8602 20.1562 42.1875 20.1562H31.9386V0Z" fill="#FF7262"/>
<path d="M52.4365 30.2344C52.4365 35.8125 47.8602 40.3125 42.1875 40.3125C36.5149 40.3125 31.9386 35.8125 31.9386 30.2344C31.9386 24.6562 36.5149 20.1562 42.1875 20.1562C47.8602 20.1562 52.4365 24.6562 52.4365 30.2344Z" fill="#1ABCFE"/>
</svg>
