<svg width="60" height="60" viewBox="0 0 60 60" fill="none" xmlns="http://www.w3.org/2000/svg">
<path d="M22.3205 45.9938C22.3205 45.9938 20.086 47.2942 23.9128 47.7329C28.5497 48.2626 30.9192 48.1867 36.0277 47.221C36.0277 47.221 37.3735 48.0624 39.2494 48.7918C27.7936 53.6996 13.3238 48.5073 22.3205 45.9938ZM20.9199 39.5884C20.9199 39.5884 18.413 41.4442 22.2431 41.8407C27.1964 42.3521 31.1072 42.3938 37.8778 41.0907C37.8778 41.0907 38.8121 42.0399 40.2835 42.5584C26.4356 46.6084 11.0119 42.8771 20.9199 39.5884Z" fill="#0074BD"/>
<path d="M32.7197 28.7207C35.5439 31.9715 31.9791 34.8942 31.9791 34.8942C31.9791 34.8942 39.1458 31.1952 35.8552 26.5612C32.7806 22.2417 30.4238 20.0962 43.1841 12.6956C43.1841 12.696 23.1539 17.6971 32.7197 28.7207Z" fill="#EA2D2E"/>
<path d="M47.8701 50.7323C47.8701 50.7323 49.5244 52.0963 46.0476 53.1506C39.4373 55.1531 18.5292 55.7568 12.7223 53.2307C10.6359 52.3223 14.55 51.0627 15.7814 50.797C17.0653 50.519 17.7984 50.5696 17.7984 50.5696C15.4767 48.9351 2.79232 53.7806 11.3564 55.1704C34.71 58.956 53.9269 53.4656 47.8701 50.7323ZM23.3962 32.9502C23.3962 32.9502 12.7622 35.4763 19.6308 36.3946C22.5314 36.7827 28.3111 36.6937 33.6984 36.2418C38.1 35.872 42.517 35.0821 42.517 35.0821C42.517 35.0821 40.9664 35.7473 39.8433 36.5132C29.0423 39.3543 8.18201 38.031 14.1881 35.1266C19.2656 32.6709 23.3962 32.9502 23.3962 32.9502ZM42.4729 43.6129C53.4515 37.9096 48.375 32.4285 44.8317 33.1668C43.9655 33.3473 43.5769 33.5043 43.5769 33.5043C43.5769 33.5043 43.8994 32.9985 44.5144 32.781C51.5236 30.3177 56.9133 40.0481 42.2536 43.9021C42.2536 43.9012 42.4219 43.7488 42.4729 43.6129Z" fill="#0074BD"/>
<path d="M35.8551 0.743896C35.8551 0.743896 41.9339 6.82639 30.0881 16.1765C20.5884 23.6794 27.922 27.9562 30.0848 32.8448C24.539 27.8419 20.4712 23.437 23.1998 19.3378C27.2067 13.3219 38.3072 10.4039 35.8551 0.743896Z" fill="#EA2D2E"/>
<path d="M24.4753 59.0723C35.011 59.7459 51.1941 58.6973 51.5771 53.7117C51.5771 53.7117 50.8407 55.6017 42.8691 57.1012C33.8757 58.7943 22.7813 58.597 16.2033 57.5109C16.2033 57.5114 17.551 58.627 24.4753 59.0723Z" fill="#0074BD"/>
</svg>
