<svg width="58" height="58" viewBox="0 0 58 58" fill="none" xmlns="http://www.w3.org/2000/svg">
<path d="M51.0994 13.7451L31.1179 2.1428C29.8578 1.42505 28.217 1.42505 26.9469 2.1428L6.75202 13.7451C5.45155 14.4932 4.53125 15.8992 4.53125 17.4031V40.5769C4.53125 42.0808 5.47556 43.4873 6.77603 44.2395L12.1116 47.27C14.6618 48.526 15.563 48.526 16.7235 48.526C20.4994 48.526 22.6562 46.2427 22.6562 42.2602V19.3819C22.6562 19.0589 22.4881 18.5781 22.171 18.5781H19.623C19.3004 18.5781 18.5781 19.0589 18.5781 19.3815V42.2598C18.5781 44.0252 16.9813 45.7819 13.997 44.2898L8.48386 41.112C8.29173 41.0078 8.15625 40.798 8.15625 40.5769V17.4031C8.15625 17.1847 8.40773 16.9654 8.60122 16.8535L28.7308 5.27118C28.9189 5.1647 29.1953 5.1647 29.3829 5.27118L49.2669 16.8508C49.4572 16.9654 49.3902 17.1779 49.3902 17.4031V40.5769C49.3902 40.798 49.4731 41.0132 49.285 41.1197L29.3086 52.7088C29.1373 52.8117 28.9248 52.8117 28.7372 52.7088L23.6137 49.6507C23.4592 49.561 23.2757 49.5288 23.1275 49.6117C21.702 50.4197 21.4392 50.527 20.102 50.9906C19.773 51.1052 19.2877 51.3041 20.2878 51.8647L26.9931 55.8313C27.6333 56.2011 28.3595 56.3958 29.0988 56.3959C29.8428 56.3959 30.5714 56.2029 31.2135 55.8313L51.0989 44.2395C52.3994 43.4819 53.0156 42.0808 53.0156 40.5769V17.4031C53.0156 15.8992 52.3994 14.4968 51.0994 13.7451ZM35.303 36.9047C29.9896 36.9047 28.8192 35.4389 28.4291 32.7967C28.3838 32.5121 28.1422 32.1719 27.8527 32.1719H25.2558C24.9346 32.1719 24.6763 32.5615 24.6763 32.8814C24.6763 36.2645 26.5155 40.3634 35.3034 40.3634C41.6648 40.3634 45.312 37.8917 45.312 33.5172C45.312 29.1799 42.3817 28.0416 36.2124 27.2251C29.9765 26.4009 29.343 25.9844 29.343 24.5236C29.343 23.3191 29.8795 21.7128 34.4969 21.7128C38.6226 21.7128 40.1432 22.5982 40.769 25.3791C40.8225 25.6405 41.0613 25.8281 41.3309 25.8281H43.9382C44.0986 25.8281 44.2517 25.7633 44.3641 25.6487C44.4729 25.5254 44.5304 25.3709 44.5159 25.2051C44.1122 20.4164 40.9308 18.1848 34.4964 18.1848C28.773 18.1848 25.3587 20.6018 25.3587 24.6532C25.3587 29.0476 28.7558 30.2619 34.2499 30.8052C40.8225 31.4496 41.3336 32.4102 41.3336 33.703C41.3336 35.9482 39.5311 36.9047 35.303 36.9047Z" fill="#83CD29"/>
</svg>
